<svg width="755" height="170" viewBox="0 0 755 170" fill="none" xmlns="http://www.w3.org/2000/svg">
  <rect width="755" height="170" fill="" />
  <path d="M283.456 30.496C289.12 30.496 294.064 31.648 298.288 33.952C302.608 36.256 305.92 39.28 308.224 43.024V31.648H332.848V111.856C332.848 119.248 331.36 125.92 328.384 131.872C325.504 137.92 321.04 142.72 314.992 146.272C309.04 149.824 301.6 151.6 292.672 151.6C280.768 151.6 271.12 148.768 263.728 143.104C256.336 137.536 252.112 129.952 251.056 120.352H275.392C276.16 123.424 277.984 125.824 280.864 127.552C283.744 129.376 287.296 130.288 291.52 130.288C296.608 130.288 300.64 128.8 303.616 125.824C306.688 122.944 308.224 118.288 308.224 111.856V100.48C305.824 104.224 302.512 107.296 298.288 109.696C294.064 112 289.12 113.152 283.456 113.152C276.832 113.152 270.832 111.472 265.456 108.112C260.08 104.656 255.808 99.808 252.64 93.568C249.568 87.232 248.032 79.936 248.032 71.68C248.032 63.424 249.568 56.176 252.64 49.936C255.808 43.696 260.08 38.896 265.456 35.536C270.832 32.176 276.832 30.496 283.456 30.496ZM308.224 71.824C308.224 65.68 306.496 60.832 303.04 57.28C299.68 53.728 295.552 51.952 290.656 51.952C285.76 51.952 281.584 53.728 278.128 57.28C274.768 60.736 273.088 65.536 273.088 71.68C273.088 77.824 274.768 82.72 278.128 86.368C281.584 89.92 285.76 91.696 290.656 91.696C295.552 91.696 299.68 89.92 303.04 86.368C306.496 82.816 308.224 77.968 308.224 71.824Z" fill="white" />
  <path d="M425.686 31.648V112H401.062V101.056C398.566 104.608 395.158 107.488 390.838 109.696C386.614 111.808 381.91 112.864 376.726 112.864C370.582 112.864 365.158 111.52 360.454 108.832C355.75 106.048 352.102 102.064 349.51 96.88C346.918 91.696 345.622 85.6 345.622 78.592V31.648H370.102V75.28C370.102 80.656 371.494 84.832 374.278 87.808C377.062 90.784 380.806 92.272 385.51 92.272C390.31 92.272 394.102 90.784 396.886 87.808C399.67 84.832 401.062 80.656 401.062 75.28V31.648H425.686Z" fill="white" />
  <path d="M475.198 88.96L492.622 31.648H518.83L490.318 112H459.934L431.422 31.648H457.774L475.198 88.96Z" fill="white" />
  <path d="M573.834 30.784C583.242 30.784 590.73 33.856 596.298 40C601.962 46.048 604.794 54.4 604.794 65.056V112H580.314V68.368C580.314 62.992 578.922 58.816 576.138 55.84C573.354 52.864 569.61 51.376 564.906 51.376C560.202 51.376 556.458 52.864 553.674 55.84C550.89 58.816 549.498 62.992 549.498 68.368V112H524.874V31.648H549.498V42.304C551.994 38.752 555.354 35.968 559.578 33.952C563.802 31.84 568.554 30.784 573.834 30.784Z" fill="white" />
  <path d="M654.161 113.152C646.289 113.152 639.185 111.472 632.849 108.112C626.609 104.752 621.665 99.952 618.017 93.712C614.465 87.472 612.689 80.176 612.689 71.824C612.689 63.568 614.513 56.32 618.161 50.08C621.809 43.744 626.801 38.896 633.137 35.536C639.473 32.176 646.577 30.496 654.449 30.496C662.321 30.496 669.425 32.176 675.761 35.536C682.097 38.896 687.089 43.744 690.737 50.08C694.385 56.32 696.209 63.568 696.209 71.824C696.209 80.08 694.337 87.376 690.593 93.712C686.945 99.952 681.905 104.752 675.473 108.112C669.137 111.472 662.033 113.152 654.161 113.152ZM654.161 91.84C658.865 91.84 662.849 90.112 666.113 86.656C669.473 83.2 671.153 78.256 671.153 71.824C671.153 65.392 669.521 60.448 666.257 56.992C663.089 53.536 659.153 51.808 654.449 51.808C649.649 51.808 645.665 53.536 642.497 56.992C639.329 60.352 637.745 65.296 637.745 71.824C637.745 78.256 639.281 83.2 642.353 86.656C645.521 90.112 649.457 91.84 654.161 91.84Z" fill="white" />
  <path d="M729.577 45.04C732.457 40.624 736.057 37.168 740.377 34.672C744.697 32.08 749.497 30.784 754.777 30.784V56.848H748.009C741.865 56.848 737.257 58.192 734.185 60.88C731.113 63.472 729.577 68.08 729.577 74.704V112H704.953V31.648H729.577V45.04Z" fill="white" />
  <path fill-rule="evenodd" clip-rule="evenodd" d="M148.54 20H55.4603L27.0275 48.4552L101.939 138.7L164.034 64H125.012L101.974 92L65 47H101H139H175.518L148.54 20ZM204 47.2086L156.829 0H47.1714L0 47.2086L101.928 170L204 47.2086Z" fill="white" />
</svg>
